<?xml version="1.0" encoding="UTF-8"?>
<svg id="Ebene_1" xmlns="http://www.w3.org/2000/svg" version="1.1" viewBox="0 0 500 371.3696423">
  <!-- Generator: Adobe Illustrator 29.0.0, SVG Export Plug-In . SVG Version: 2.1.0 Build 186)  -->
  <defs>
    <style>
      .st0 {
        fill: #1d1d1b;
      }

      .st1 {
        fill: #fff;
      }

      .st2 {
        fill: #fff100;
      }
    </style>
  </defs>
  <path class="st2" d="M249.2584364,222.25708c-61.506191,0-111.3695141-49.8631362-111.3695141-111.3696729-.0000093-61.5064106,49.6101555-111.3696542,111.3695141-111.3696542,61.7598445,0,111.3698131,49.863239,111.3698131,111.3696636,0,61.5065087-49.8631922,111.3696636-111.3698131,111.3696636,0,0,.0000187,0,0,0Z"/>
  <g>
    <path class="st0" d="M222.5541253,64.8208128c-25.3114129,0-46.0664822,20.7552281-46.0664822,46.0666036,0,25.5646178,20.7550693,46.066613,46.0664822,46.066613,25.3113755,0,46.0665756-20.7552281,46.0665756-46.066613s-20.7552001-46.0666083-46.0665756-46.0666036Z"/>
    <path class="st0" d="M305.4503883,94.3082854h-21.8938468v33.1582622h21.8938468c9.15638,0,16.5791405-7.4227138,16.5791405-16.5791311v-.0000374c0-9.1563706-7.4227605-16.5790937-16.5791405-16.5790937Z"/>
  </g>
  <g>
    <path class="st1" d="M139.6544424,339.3547558c0,9.8714611-2.7842453,18.1313733-13.1615557,18.1313733-10.3778804,0-13.1621164-8.2599122-13.1621164-18.1313733v-42.0168288h-18.730607v46.066613c0,17.9709548,14.4276179,28.4473494,31.8927234,28.4473494,17.4645355,0,31.8922001-10.4763946,31.8922001-28.4473494v-46.066613h-18.7306444v42.0168288Z"/>
    <path class="st1" d="M29.0321227,272.1740192H0v97.8992124h29.0321227c31.0577698,0,54.4186879-10.1279365,54.4186879-49.0172571,0-38.889956-23.3609228-48.8819179-54.4186879-48.8819553ZM28.2218654,354.9496319h-8.9119304v-67.6519942h8.9119304c17.8244635,0,35.2437972,4.4561194,35.2437972,33.7583369,0,29.5722978-17.4193337,33.8936573-35.2437972,33.8936573Z"/>
    <path class="st1" d="M206.1677151,357.3797939c-10.2620609,0-17.5543785-8.5067819-17.5543785-23.7657582,0-15.1235998,7.697139-23.3609181,17.4196374-23.3609181,7.1569784,0,13.6384384,4.99628,15.1235998,12.0179193h17.8244588c-2.5655199-17.9592-17.6891197-26.4665986-32.9480586-26.4665986-21.7403989,0-36.4591772,15.9344574-36.4591772,38.0797151,0,22.0104979,13.9085187,37.9443386,35.6489176,37.9443386,15.1235998,0,30.1124584-6.6168178,34.4332386-26.4665986h-17.8238608c-2.5661179,8.6421585-9.1823191,12.0179006-15.6643771,12.0179006Z"/>
    <polygon class="st1" points="316.6250074 297.4249388 295.6948494 297.4249388 269.2282321 326.5924338 269.2282321 272.1740192 250.5935137 272.1740192 250.5935137 370.0732316 269.2282321 370.0732316 269.2282321 348.1974749 278.1404708 338.6103344 297.1800107 370.0732316 318.11015 370.0732316 290.5632115 325.2419949 316.6250074 297.4249388"/>
    <path class="st1" d="M354.8394262,272.1740192h-29.0327352v97.8992124h29.0327352c31.0574778,0,54.4183772-10.1279365,54.4183772-49.0172571,0-38.889956-23.3609368-48.8819179-54.4183772-48.8819553ZM354.0291853,354.9496319h-8.9122388v-67.6519942h8.9122388c17.8244775,0,35.2434982,4.4561194,35.2434982,33.7583369,0,29.5722978-17.4190207,33.8936573-35.2434982,33.8936573Z"/>
    <path class="st1" d="M485.4160002,318.3550968c4.9962987-3.2404403,11.0729185-11.47774,11.0729185-20.660059,0-20.1198984-18.4993792-25.5209998-35.6489176-25.5209998h-38.0797151v97.8991937h39.7001969c20.1198984,0,37.5395171-7.8318802,37.5395171-28.897396,0-13.5030806-7.0222373-19.174879-14.5839998-22.8207388ZM442.0705415,287.2976377h19.9845593c9.0475779,0,14.5840372,4.5908605,14.5840372,12.2879996,0,8.6421398-5.4017181,12.96292-14.5840372,12.96292h-19.9845593v-25.2509195ZM463.4055023,354.9496319h-21.3349608v-27.8170375h20.5247199c12.0179006,0,17.6897364,4.8609595,17.6897364,14.0432412,0,9.0475779-5.5364593,13.7737963-16.8794955,13.7737963Z"/>
  </g>
</svg>