<svg viewBox="0 0 48 48" fill="none" xmlns="http://www.w3.org/2000/svg">
  <path fill-rule="evenodd" clip-rule="evenodd" d="M4 8.3c0-2.4 2-4.3 4.4-4.3h21c2.4 0 4.4 1.9 4.4 4.3v17.6c0 2.5-3.2 3.5-4.7 1.5l-6-7.9v10.8c0 2.2-1.8 3.9-4 3.9H8.4C6 34.2 4 32.3 4 29.9V8.3zm4.4-.4c-.5 0-.9.4-.9.9v21.1c0 .5.4.9.9.9h9.7c.2 0 .4-.2.4-.4V18c0-2.5 3.2-3.5 4.7-1.5l6 7.9V8.3c0-.5.1-.9-.5-.9H8.4z" fill="#12FFF7"/>
  <path fill-rule="evenodd" clip-rule="evenodd" d="M4 8.3c0-2.4 2-4.3 4.4-4.3h21c2.4 0 4.4 1.9 4.4 4.3v17.6c0 2.5-3.2 3.5-4.7 1.5l-6-7.9v10.8c0 2.2-1.8 3.9-4 3.9H8.4C6 34.2 4 32.3 4 29.9V8.3zm4.4-.4c-.5 0-.9.4-.9.9v21.1c0 .5.4.9.9.9h9.7c.2 0 .4-.2.4-.4V18c0-2.5 3.2-3.5 4.7-1.5l6 7.9V8.3c0-.5.1-.9-.5-.9H8.4z" fill="url(#neon-a)"/>
  <path d="M29.4 4c2.4 0 4.4 1.9 4.4 4.3v17.6c0 2.5-3.2 3.5-4.7 1.5l-6-7.9v10.8c0 2.2-1.8 3.9-4 3.9.2 0 .4-.2.4-.4V18c0-2.5 3.2-3.5 4.7-1.5l6 7.9V4.4c0-.5-.5-.4-.8-.4z" fill="#B9FFB3"/>
  <defs>
    <linearGradient id="neon-a" x1="33.8" y1="34.2" x2="8.5" y2="4.3" gradientUnits="userSpaceOnUse">
      <stop stop-color="#B9FFB3"/>
      <stop offset="1" stop-color="#B9FFB3" stop-opacity="0"/>
    </linearGradient>
  </defs>
</svg>
